<?xml version="1.0" encoding="UTF-8"?>
<!DOCTYPE svg  PUBLIC '-//W3C//DTD SVG 1.1//EN'  'http://www.w3.org/Graphics/SVG/1.1/DTD/svg11.dtd'>
<svg enable-background="new 0 0 446.853 446.853" version="1.1" viewBox="0 0 446.85 446.85" xml:space="preserve" xmlns="http://www.w3.org/2000/svg">

	<path d="m444.27 93.36c-2.558-3.666-6.674-5.932-11.145-6.123l-277.19-11.948c-7.953-0.348-14.599 5.792-14.939 13.708-0.338 7.913 5.792 14.599 13.707 14.939l258.42 11.14-50.811 158.53h-226.12l-40.851-222.43c-0.898-4.875-4.245-8.942-8.861-10.753l-66.907-26.285c-7.374-2.887-15.695 0.735-18.591 8.1-2.891 7.369 0.73 15.695 8.1 18.591l59.491 23.371 41.572 226.34c1.253 6.804 7.183 11.746 14.104 11.746h6.896l-15.747 43.74c-1.318 3.664-0.775 7.733 1.468 10.916 2.24 3.184 5.883 5.078 9.772 5.078h11.045c-6.844 7.617-11.045 17.646-11.045 28.675 0 23.718 19.299 43.012 43.012 43.012s43.012-19.294 43.012-43.012c0-11.028-4.201-21.058-11.044-28.675h93.777c-6.847 7.617-11.047 17.646-11.047 28.675 0 23.718 19.294 43.012 43.012 43.012 23.719 0 43.012-19.294 43.012-43.012 0-11.028-4.2-21.058-11.042-28.675h13.432c6.6 0 11.948-5.349 11.948-11.947 0-6.6-5.349-11.948-11.948-11.948h-229.12l12.902-35.843h216.22c6.235 0 11.752-4.028 13.651-9.96l59.739-186.39c1.372-4.254 0.668-8.905-1.89-12.573zm-274.61 316.45c-10.543 0-19.117-8.573-19.117-19.116s8.574-19.117 19.117-19.117 19.116 8.574 19.116 19.117-8.573 19.116-19.116 19.116zm157.71 0c-10.543 0-19.116-8.573-19.116-19.116s8.573-19.117 19.116-19.117 19.116 8.574 19.116 19.117-8.573 19.116-19.116 19.116z"/>
















</svg>
